<svg width="41" height="41" viewBox="0 0 41 41" fill="none" xmlns="http://www.w3.org/2000/svg">
<path id="Icon" fill-rule="evenodd" clip-rule="evenodd" d="M20.9 0.839996H0.899994V40.84H20.9C31.9457 40.84 40.9 31.8857 40.9 20.84C40.9 9.7943 31.9457 0.839996 20.9 0.839996ZM9.09999 9.84H7.09999V11.84H9.09999V9.84ZM7.09999 14.84H9.09999V16.84H7.09999V14.84ZM21.1 9.84H11.1V11.84H21.1V9.84ZM11.1 14.84H27.1V16.84H11.1V14.84ZM35.875 33.6989L31.6419 32.4986C30.7477 34.7676 29.2424 36.7445 27.293 38.21C25.3436 39.6755 23.1281 40.5114 20.7 40.74L19.2 40.8388H16.7C21.1542 39.2434 23.7918 35.9895 25.2922 30.6982L21.0591 29.4978L30.5676 24.1904L35.875 33.6989Z" fill="#0080FF"/>
</svg>
