<svg width="80" height="80" viewBox="0 0 80 80" fill="none" xmlns="http://www.w3.org/2000/svg">
<path id="Icon" opacity="0.2" fill-rule="evenodd" clip-rule="evenodd" d="M40 0H0V80H40C62.0914 80 80 62.0914 80 40C80 17.9086 62.0914 0 40 0ZM16.4 18H12.4V22H16.4V18ZM12.4 28H16.4V32H12.4V28ZM40.4 18H20.4V22H40.4V18ZM20.4 28H52.4V32H20.4V28ZM69.9501 65.7179L61.4838 63.3172C59.6955 67.8552 56.6849 71.809 52.786 74.74C48.8872 77.671 44.4562 79.3429 39.6 79.8L36.6 79.9977H31.6C40.5083 76.8068 45.7837 70.2991 48.7845 59.7163L40.3183 57.3157L59.3352 46.7009L69.9501 65.7179Z" fill="#0080FF"/>
</svg>
