<svg width="193" height="29" viewBox="0 0 193 29" fill="none" xmlns="http://www.w3.org/2000/svg">
<g id="DocuShare">
<path id="Vector" d="M188.959 21.5792H192.454C192.249 22.8336 191.762 23.96 190.994 24.9584C190.226 25.9568 189.215 26.7504 187.961 27.3392C186.706 27.928 185.234 28.2224 183.545 28.2224C181.548 28.2224 179.769 27.8 178.207 26.9552C176.646 26.1104 175.417 24.9456 174.521 23.4608C173.625 21.976 173.177 20.248 173.177 18.2768C173.177 16.28 173.612 14.5392 174.482 13.0544C175.353 11.544 176.556 10.3664 178.092 9.5216C179.628 8.6768 181.382 8.25439 183.353 8.25439C185.426 8.25439 187.167 8.66399 188.575 9.48319C189.983 10.3024 191.02 11.5184 191.686 13.1312C192.377 14.7184 192.658 16.7024 192.53 19.0832H176.825C176.953 20.2352 177.298 21.2592 177.862 22.1552C178.45 23.0512 179.218 23.7552 180.166 24.2672C181.138 24.7792 182.252 25.0352 183.506 25.0352C184.914 25.0352 186.092 24.7152 187.039 24.0752C187.986 23.4352 188.626 22.6032 188.959 21.5792ZM183.391 11.4032C181.727 11.4032 180.345 11.8512 179.244 12.7472C178.143 13.6176 177.414 14.7824 177.055 16.2416H188.844C188.742 14.68 188.178 13.4896 187.154 12.6704C186.13 11.8256 184.876 11.4032 183.391 11.4032Z" fill="black"/>
<path id="Vector_2" d="M161.443 8.63839H165.13V27.8H161.443V8.63839ZM171.619 11.9024C170.288 11.9024 169.149 12.2096 168.202 12.824C167.28 13.4384 166.538 14.1936 165.974 15.0896C165.437 15.9856 165.078 16.8432 164.899 17.6624L164.861 15.4736C164.886 15.2176 164.95 14.8208 165.053 14.2832C165.181 13.72 165.398 13.0928 165.706 12.4016C166.013 11.7104 166.422 11.0576 166.934 10.4432C167.446 9.80319 168.086 9.27839 168.854 8.86879C169.622 8.45919 170.544 8.25439 171.619 8.25439V11.9024Z" fill="black"/>
<path id="Vector_3" d="M146.459 28.184C144.821 28.184 143.323 27.7616 141.966 26.9168C140.609 26.072 139.534 24.9072 138.741 23.4224C137.947 21.912 137.55 20.184 137.55 18.2384C137.55 16.2928 137.947 14.5776 138.741 13.0928C139.56 11.5824 140.673 10.4048 142.081 9.55999C143.489 8.68959 145.064 8.25439 146.805 8.25439C148.725 8.25439 150.209 8.70239 151.259 9.59839C152.334 10.4944 153.077 11.6976 153.486 13.208C153.921 14.7184 154.139 16.3952 154.139 18.2384C154.139 19.2624 154.011 20.3504 153.755 21.5024C153.499 22.6544 153.089 23.7424 152.526 24.7664C151.963 25.7904 151.182 26.6224 150.184 27.2624C149.185 27.8768 147.944 28.184 146.459 28.184ZM147.496 24.9968C148.853 24.9968 149.992 24.7024 150.913 24.1136C151.861 23.4992 152.565 22.68 153.025 21.656C153.486 20.632 153.717 19.4928 153.717 18.2384C153.717 16.8816 153.473 15.6912 152.987 14.6672C152.526 13.6432 151.822 12.8496 150.875 12.2864C149.953 11.7232 148.827 11.4416 147.496 11.4416C145.499 11.4416 143.95 12.0816 142.849 13.3616C141.774 14.6416 141.237 16.2672 141.237 18.2384C141.237 19.5696 141.505 20.7472 142.043 21.7712C142.581 22.7696 143.31 23.5632 144.232 24.152C145.179 24.7152 146.267 24.9968 147.496 24.9968ZM153.717 8.63839H157.403V27.8H154.024C154.024 27.8 153.998 27.5696 153.947 27.1088C153.896 26.6224 153.845 26.0464 153.793 25.3808C153.742 24.7152 153.717 24.1264 153.717 23.6144V8.63839Z" fill="black"/>
<path id="Vector_4" d="M130.815 27.8V16.2416C130.815 15.2176 130.649 14.3728 130.316 13.7072C129.983 13.0416 129.484 12.5424 128.818 12.2096C128.153 11.8512 127.308 11.672 126.284 11.672C125.157 11.672 124.121 11.9408 123.173 12.4784C122.252 12.9904 121.497 13.6944 120.908 14.5904C120.319 15.4608 119.961 16.4464 119.833 17.5472L119.794 15.3584C119.922 14.36 120.191 13.4256 120.601 12.5552C121.036 11.6848 121.573 10.9296 122.213 10.2896C122.879 9.6496 123.647 9.15041 124.517 8.79201C125.388 8.43361 126.335 8.25441 127.359 8.25441C128.434 8.25441 129.407 8.40801 130.277 8.71521C131.148 8.99681 131.89 9.44481 132.505 10.0592C133.145 10.648 133.631 11.3776 133.964 12.248C134.297 13.0928 134.463 14.0656 134.463 15.1664V27.8H130.815ZM116.415 27.8V0.958405H120.063V27.8H116.415Z" fill="black"/>
<path id="Vector_5" d="M93.072 19.6208H96.6048C96.6816 20.6192 97.0144 21.528 97.6032 22.3472C98.2176 23.1408 99.0368 23.768 100.061 24.2288C101.11 24.6896 102.326 24.92 103.709 24.92C104.912 24.92 105.91 24.7536 106.704 24.4208C107.498 24.088 108.086 23.64 108.47 23.0768C108.88 22.488 109.085 21.7968 109.085 21.0032C109.085 20.2096 108.867 19.5824 108.432 19.1216C107.997 18.6352 107.344 18.2384 106.474 17.9312C105.603 17.5984 104.528 17.2784 103.248 16.9712C102.122 16.6896 101.008 16.3568 99.9072 15.9728C98.832 15.5632 97.8336 15.064 96.912 14.4752C96.016 13.8864 95.2864 13.1824 94.7232 12.3632C94.1856 11.5184 93.9168 10.5072 93.9168 9.32959C93.9168 8.07519 94.2624 6.93599 94.9536 5.91199C95.6448 4.86239 96.656 4.03039 97.9872 3.41599C99.344 2.77599 100.982 2.45599 102.902 2.45599C105.872 2.45599 108.112 3.19839 109.622 4.68319C111.158 6.16799 111.901 8.15199 111.85 10.6352H108.394C108.317 8.89439 107.766 7.65279 106.742 6.91039C105.718 6.14239 104.387 5.75839 102.749 5.75839C101.341 5.75839 100.138 6.05279 99.1392 6.64159C98.1408 7.20479 97.6416 8.10079 97.6416 9.32959C97.6416 9.86719 97.7568 10.3408 97.9872 10.7504C98.2176 11.1344 98.6016 11.4928 99.1392 11.8256C99.6768 12.1584 100.394 12.4784 101.29 12.7856C102.211 13.0928 103.35 13.4256 104.707 13.784C105.731 14.0144 106.717 14.3088 107.664 14.6672C108.637 15.0256 109.507 15.4736 110.275 16.0112C111.043 16.5488 111.645 17.24 112.08 18.0848C112.541 18.9296 112.771 19.9664 112.771 21.1952C112.771 22.5008 112.451 23.6912 111.811 24.7664C111.171 25.816 110.173 26.6608 108.816 27.3008C107.485 27.9152 105.757 28.2224 103.632 28.2224C101.942 28.2224 100.47 28.0048 99.216 27.5696C97.9872 27.1344 96.9504 26.5712 96.1056 25.88C95.2864 25.1888 94.6336 24.4464 94.1472 23.6528C93.6864 22.8592 93.3664 22.104 93.1872 21.3872C93.0336 20.6704 92.9952 20.0816 93.072 19.6208Z" fill="black"/>
<path id="Vector_6" d="M90.0891 27.8H86.4411V8.6384H90.0891V27.8ZM86.6331 18.776L86.6715 19.928C86.6459 20.2608 86.5563 20.76 86.4027 21.4256C86.2747 22.0656 86.0443 22.7696 85.7115 23.5376C85.4043 24.3056 84.9691 25.048 84.4059 25.7648C83.8683 26.4816 83.1771 27.0704 82.3323 27.5312C81.4875 27.992 80.4635 28.2224 79.2603 28.2224C78.4411 28.2224 77.5963 28.1072 76.7259 27.8768C75.8811 27.6464 75.1003 27.2624 74.3835 26.7248C73.6667 26.1872 73.0907 25.4576 72.6555 24.536C72.2203 23.5888 72.0027 22.4112 72.0027 21.0032V8.6384H75.6891V20.2352C75.6891 21.4128 75.8683 22.3344 76.2267 23C76.6107 23.6656 77.1483 24.1392 77.8395 24.4208C78.5307 24.7024 79.3115 24.8432 80.1819 24.8432C81.5131 24.8432 82.6267 24.5232 83.5227 23.8832C84.4443 23.2176 85.1611 22.424 85.6731 21.5024C86.1851 20.5552 86.5051 19.6464 86.6331 18.776Z" fill="black"/>
<path id="Vector_7" d="M68.9358 20.504C68.7822 22.0912 68.2702 23.4736 67.3998 24.6512C66.555 25.8032 65.4414 26.6864 64.059 27.3008C62.6766 27.9152 61.1406 28.2224 59.451 28.2224C57.5822 28.2224 55.867 27.8384 54.3054 27.0704C52.7438 26.2768 51.4894 25.1376 50.5422 23.6528C49.6206 22.1424 49.1598 20.3504 49.1598 18.2768C49.1598 16.1776 49.6206 14.3856 50.5422 12.9008C51.4894 11.3904 52.7438 10.2384 54.3054 9.44479C55.867 8.65119 57.5822 8.25439 59.451 8.25439C61.1406 8.25439 62.6638 8.5616 64.0206 9.17599C65.3774 9.79039 66.491 10.6736 67.3614 11.8256C68.2318 12.952 68.7566 14.3088 68.9358 15.896H65.595C65.1598 14.5136 64.379 13.4256 63.2526 12.632C62.1518 11.8128 60.8846 11.4032 59.451 11.4032C58.2734 11.4032 57.1726 11.672 56.1486 12.2096C55.1502 12.7472 54.3438 13.528 53.7294 14.552C53.1406 15.5504 52.8462 16.792 52.8462 18.2768C52.8462 19.7104 53.1406 20.9392 53.7294 21.9632C54.3438 22.9616 55.1502 23.7296 56.1486 24.2672C57.147 24.7792 58.2478 25.0352 59.451 25.0352C61.0894 25.0352 62.4206 24.6384 63.4446 23.8448C64.4686 23.0512 65.1982 21.9376 65.6334 20.504H68.9358Z" fill="black"/>
<path id="Vector_8" d="M36.8931 28.2224C35.0243 28.2224 33.3091 27.8256 31.7475 27.032C30.1859 26.2384 28.9443 25.0992 28.0227 23.6144C27.1011 22.1296 26.6403 20.3504 26.6403 18.2768C26.6403 16.1776 27.1011 14.3856 28.0227 12.9008C28.9443 11.3904 30.1859 10.2384 31.7475 9.44479C33.3091 8.65119 35.0243 8.25439 36.8931 8.25439C38.7619 8.25439 40.4643 8.65119 42.0003 9.44479C43.5363 10.2384 44.7651 11.3904 45.6867 12.9008C46.6083 14.3856 47.0691 16.1776 47.0691 18.2768C47.0691 20.3504 46.6083 22.1296 45.6867 23.6144C44.7651 25.0992 43.5363 26.2384 42.0003 27.032C40.4643 27.8256 38.7619 28.2224 36.8931 28.2224ZM36.8931 25.0352C38.0451 25.0352 39.1075 24.7792 40.0803 24.2672C41.0787 23.7296 41.8723 22.9616 42.4611 21.9632C43.0755 20.9392 43.3827 19.7104 43.3827 18.2768C43.3827 16.8176 43.0755 15.576 42.4611 14.552C41.8723 13.528 41.0787 12.7472 40.0803 12.2096C39.1075 11.672 38.0451 11.4032 36.8931 11.4032C35.7411 11.4032 34.6659 11.672 33.6675 12.2096C32.6691 12.7216 31.8627 13.4896 31.2483 14.5136C30.6339 15.5376 30.3267 16.792 30.3267 18.2768C30.3267 19.7104 30.6211 20.9392 31.2099 21.9632C31.8243 22.9616 32.6307 23.7296 33.6291 24.2672C34.6275 24.7792 35.7155 25.0352 36.8931 25.0352Z" fill="black"/>
<path id="Vector_9" d="M10.3176 2.87842C12.9032 2.87842 15.0664 3.21122 16.8072 3.87682C18.5736 4.51682 19.9816 5.41282 21.0312 6.56482C22.1064 7.71682 22.8744 9.03522 23.3352 10.52C23.796 12.0048 24.0264 13.5792 24.0264 15.2432C24.0264 16.8816 23.7704 18.456 23.2584 19.9664C22.772 21.4768 21.9784 22.8208 20.8776 23.9984C19.8024 25.176 18.3944 26.1104 16.6536 26.8016C14.9128 27.4672 12.8008 27.8 10.3176 27.8H0.333603V2.87842H10.3176ZM4.02 24.4592H10.2792C12.2504 24.4592 13.876 24.2032 15.156 23.6912C16.436 23.1536 17.4472 22.4496 18.1896 21.5792C18.9576 20.6832 19.4952 19.6848 19.8024 18.584C20.1352 17.4832 20.3016 16.3696 20.3016 15.2432C20.3016 14.0912 20.1352 12.9776 19.8024 11.9024C19.4952 10.8272 18.9576 9.86722 18.1896 9.02242C17.4472 8.15202 16.436 7.47362 15.156 6.98722C13.876 6.47522 12.2504 6.21922 10.2792 6.21922H4.02V24.4592Z" fill="black"/>
</g>
</svg>
