<svg width="265" height="48" viewBox="0 0 265 48" fill="none" xmlns="http://www.w3.org/2000/svg">
<path d="M258.959 29.5792H262.454C262.249 30.8336 261.762 31.96 260.994 32.9584C260.226 33.9568 259.215 34.7504 257.961 35.3392C256.706 35.928 255.234 36.2224 253.545 36.2224C251.548 36.2224 249.769 35.8 248.207 34.9552C246.646 34.1104 245.417 32.9456 244.521 31.4608C243.625 29.976 243.177 28.248 243.177 26.2768C243.177 24.28 243.612 22.5392 244.482 21.0544C245.353 19.544 246.556 18.3664 248.092 17.5216C249.628 16.6768 251.382 16.2544 253.353 16.2544C255.426 16.2544 257.167 16.664 258.575 17.4832C259.983 18.3024 261.02 19.5184 261.686 21.1312C262.377 22.7184 262.658 24.7024 262.53 27.0832H246.825C246.953 28.2352 247.298 29.2592 247.862 30.1552C248.45 31.0512 249.218 31.7552 250.166 32.2672C251.138 32.7792 252.252 33.0352 253.506 33.0352C254.914 33.0352 256.092 32.7152 257.039 32.0752C257.986 31.4352 258.626 30.6032 258.959 29.5792ZM253.391 19.4032C251.727 19.4032 250.345 19.8512 249.244 20.7472C248.143 21.6176 247.414 22.7824 247.055 24.2416H258.844C258.742 22.68 258.178 21.4896 257.154 20.6704C256.13 19.8256 254.876 19.4032 253.391 19.4032Z" fill="black"/>
<path d="M231.443 16.6384H235.13V35.8H231.443V16.6384ZM241.619 19.9024C240.288 19.9024 239.149 20.2096 238.202 20.824C237.28 21.4384 236.538 22.1936 235.974 23.0896C235.437 23.9856 235.078 24.8432 234.899 25.6624L234.861 23.4736C234.886 23.2176 234.95 22.8208 235.053 22.2832C235.181 21.72 235.398 21.0928 235.706 20.4016C236.013 19.7104 236.422 19.0576 236.934 18.4432C237.446 17.8032 238.086 17.2784 238.854 16.8688C239.622 16.4592 240.544 16.2544 241.619 16.2544V19.9024Z" fill="black"/>
<path d="M216.459 36.184C214.821 36.184 213.323 35.7616 211.966 34.9168C210.609 34.072 209.534 32.9072 208.741 31.4224C207.947 29.912 207.55 28.184 207.55 26.2384C207.55 24.2928 207.947 22.5776 208.741 21.0928C209.56 19.5824 210.673 18.4048 212.081 17.56C213.489 16.6896 215.064 16.2544 216.805 16.2544C218.725 16.2544 220.209 16.7024 221.259 17.5984C222.334 18.4944 223.077 19.6976 223.486 21.208C223.921 22.7184 224.139 24.3952 224.139 26.2384C224.139 27.2624 224.011 28.3504 223.755 29.5024C223.499 30.6544 223.089 31.7424 222.526 32.7664C221.963 33.7904 221.182 34.6224 220.184 35.2624C219.185 35.8768 217.944 36.184 216.459 36.184ZM217.496 32.9968C218.853 32.9968 219.992 32.7024 220.913 32.1136C221.861 31.4992 222.565 30.68 223.025 29.656C223.486 28.632 223.717 27.4928 223.717 26.2384C223.717 24.8816 223.473 23.6912 222.987 22.6672C222.526 21.6432 221.822 20.8496 220.875 20.2864C219.953 19.7232 218.827 19.4416 217.496 19.4416C215.499 19.4416 213.95 20.0816 212.849 21.3616C211.774 22.6416 211.237 24.2672 211.237 26.2384C211.237 27.5696 211.505 28.7472 212.043 29.7712C212.581 30.7696 213.31 31.5632 214.232 32.152C215.179 32.7152 216.267 32.9968 217.496 32.9968ZM223.717 16.6384H227.403V35.8H224.024C224.024 35.8 223.998 35.5696 223.947 35.1088C223.896 34.6224 223.845 34.0464 223.793 33.3808C223.742 32.7152 223.717 32.1264 223.717 31.6144V16.6384Z" fill="black"/>
<path d="M200.815 35.8V24.2416C200.815 23.2176 200.649 22.3728 200.316 21.7072C199.983 21.0416 199.484 20.5424 198.818 20.2096C198.153 19.8512 197.308 19.672 196.284 19.672C195.157 19.672 194.121 19.9408 193.173 20.4784C192.252 20.9904 191.497 21.6944 190.908 22.5904C190.319 23.4608 189.961 24.4464 189.833 25.5472L189.794 23.3584C189.922 22.36 190.191 21.4256 190.601 20.5552C191.036 19.6848 191.573 18.9296 192.213 18.2896C192.879 17.6496 193.647 17.1504 194.517 16.792C195.388 16.4336 196.335 16.2544 197.359 16.2544C198.434 16.2544 199.407 16.408 200.277 16.7152C201.148 16.9968 201.89 17.4448 202.505 18.0592C203.145 18.648 203.631 19.3776 203.964 20.248C204.297 21.0928 204.463 22.0656 204.463 23.1664V35.8H200.815ZM186.415 35.8V8.9584H190.063V35.8H186.415Z" fill="black"/>
<path d="M163.072 27.6208H166.605C166.682 28.6192 167.014 29.528 167.603 30.3472C168.218 31.1408 169.037 31.768 170.061 32.2288C171.11 32.6896 172.326 32.92 173.709 32.92C174.912 32.92 175.91 32.7536 176.704 32.4208C177.498 32.088 178.086 31.64 178.47 31.0768C178.88 30.488 179.085 29.7968 179.085 29.0032C179.085 28.2096 178.867 27.5824 178.432 27.1216C177.997 26.6352 177.344 26.2384 176.474 25.9312C175.603 25.5984 174.528 25.2784 173.248 24.9712C172.122 24.6896 171.008 24.3568 169.907 23.9728C168.832 23.5632 167.834 23.064 166.912 22.4752C166.016 21.8864 165.286 21.1824 164.723 20.3632C164.186 19.5184 163.917 18.5072 163.917 17.3296C163.917 16.0752 164.262 14.936 164.954 13.912C165.645 12.8624 166.656 12.0304 167.987 11.416C169.344 10.776 170.982 10.456 172.902 10.456C175.872 10.456 178.112 11.1984 179.622 12.6832C181.158 14.168 181.901 16.152 181.85 18.6352H178.394C178.317 16.8944 177.766 15.6528 176.742 14.9104C175.718 14.1424 174.387 13.7584 172.749 13.7584C171.341 13.7584 170.138 14.0528 169.139 14.6416C168.141 15.2048 167.642 16.1008 167.642 17.3296C167.642 17.8672 167.757 18.3408 167.987 18.7504C168.218 19.1344 168.602 19.4928 169.139 19.8256C169.677 20.1584 170.394 20.4784 171.29 20.7856C172.211 21.0928 173.35 21.4256 174.707 21.784C175.731 22.0144 176.717 22.3088 177.664 22.6672C178.637 23.0256 179.507 23.4736 180.275 24.0112C181.043 24.5488 181.645 25.24 182.08 26.0848C182.541 26.9296 182.771 27.9664 182.771 29.1952C182.771 30.5008 182.451 31.6912 181.811 32.7664C181.171 33.816 180.173 34.6608 178.816 35.3008C177.485 35.9152 175.757 36.2224 173.632 36.2224C171.942 36.2224 170.47 36.0048 169.216 35.5696C167.987 35.1344 166.95 34.5712 166.106 33.88C165.286 33.1888 164.634 32.4464 164.147 31.6528C163.686 30.8592 163.366 30.104 163.187 29.3872C163.034 28.6704 162.995 28.0816 163.072 27.6208Z" fill="black"/>
<path d="M160.089 35.8H156.441V16.6384H160.089V35.8ZM156.633 26.776L156.671 27.928C156.646 28.2608 156.556 28.76 156.403 29.4256C156.275 30.0656 156.044 30.7696 155.711 31.5376C155.404 32.3056 154.969 33.048 154.406 33.7648C153.868 34.4816 153.177 35.0704 152.332 35.5312C151.487 35.992 150.463 36.2224 149.26 36.2224C148.441 36.2224 147.596 36.1072 146.726 35.8768C145.881 35.6464 145.1 35.2624 144.383 34.7248C143.667 34.1872 143.091 33.4576 142.655 32.536C142.22 31.5888 142.003 30.4112 142.003 29.0032V16.6384H145.689V28.2352C145.689 29.4128 145.868 30.3344 146.227 31C146.611 31.6656 147.148 32.1392 147.839 32.4208C148.531 32.7024 149.311 32.8432 150.182 32.8432C151.513 32.8432 152.627 32.5232 153.523 31.8832C154.444 31.2176 155.161 30.424 155.673 29.5024C156.185 28.5552 156.505 27.6464 156.633 26.776Z" fill="black"/>
<path d="M138.936 28.504C138.782 30.0912 138.27 31.4736 137.4 32.6512C136.555 33.8032 135.441 34.6864 134.059 35.3008C132.677 35.9152 131.141 36.2224 129.451 36.2224C127.582 36.2224 125.867 35.8384 124.305 35.0704C122.744 34.2768 121.489 33.1376 120.542 31.6528C119.621 30.1424 119.16 28.3504 119.16 26.2768C119.16 24.1776 119.621 22.3856 120.542 20.9008C121.489 19.3904 122.744 18.2384 124.305 17.4448C125.867 16.6512 127.582 16.2544 129.451 16.2544C131.141 16.2544 132.664 16.5616 134.021 17.176C135.377 17.7904 136.491 18.6736 137.361 19.8256C138.232 20.952 138.757 22.3088 138.936 23.896H135.595C135.16 22.5136 134.379 21.4256 133.253 20.632C132.152 19.8128 130.885 19.4032 129.451 19.4032C128.273 19.4032 127.173 19.672 126.149 20.2096C125.15 20.7472 124.344 21.528 123.729 22.552C123.141 23.5504 122.846 24.792 122.846 26.2768C122.846 27.7104 123.141 28.9392 123.729 29.9632C124.344 30.9616 125.15 31.7296 126.149 32.2672C127.147 32.7792 128.248 33.0352 129.451 33.0352C131.089 33.0352 132.421 32.6384 133.445 31.8448C134.469 31.0512 135.198 29.9376 135.633 28.504H138.936Z" fill="black"/>
<path d="M106.893 36.2224C105.024 36.2224 103.309 35.8256 101.748 35.032C100.186 34.2384 98.9443 33.0992 98.0227 31.6144C97.1011 30.1296 96.6403 28.3504 96.6403 26.2768C96.6403 24.1776 97.1011 22.3856 98.0227 20.9008C98.9443 19.3904 100.186 18.2384 101.748 17.4448C103.309 16.6512 105.024 16.2544 106.893 16.2544C108.762 16.2544 110.464 16.6512 112 17.4448C113.536 18.2384 114.765 19.3904 115.687 20.9008C116.608 22.3856 117.069 24.1776 117.069 26.2768C117.069 28.3504 116.608 30.1296 115.687 31.6144C114.765 33.0992 113.536 34.2384 112 35.032C110.464 35.8256 108.762 36.2224 106.893 36.2224ZM106.893 33.0352C108.045 33.0352 109.108 32.7792 110.08 32.2672C111.079 31.7296 111.872 30.9616 112.461 29.9632C113.076 28.9392 113.383 27.7104 113.383 26.2768C113.383 24.8176 113.076 23.576 112.461 22.552C111.872 21.528 111.079 20.7472 110.08 20.2096C109.108 19.672 108.045 19.4032 106.893 19.4032C105.741 19.4032 104.666 19.672 103.668 20.2096C102.669 20.7216 101.863 21.4896 101.248 22.5136C100.634 23.5376 100.327 24.792 100.327 26.2768C100.327 27.7104 100.621 28.9392 101.21 29.9632C101.824 30.9616 102.631 31.7296 103.629 32.2672C104.628 32.7792 105.716 33.0352 106.893 33.0352Z" fill="black"/>
<path d="M80.3176 10.8784C82.9032 10.8784 85.0664 11.2112 86.8072 11.8768C88.5736 12.5168 89.9816 13.4128 91.0312 14.5648C92.1064 15.7168 92.8744 17.0352 93.3352 18.52C93.796 20.0048 94.0264 21.5792 94.0264 23.2432C94.0264 24.8816 93.7704 26.456 93.2584 27.9664C92.772 29.4768 91.9784 30.8208 90.8776 31.9984C89.8024 33.176 88.3944 34.1104 86.6536 34.8016C84.9128 35.4672 82.8008 35.8 80.3176 35.8H70.3336V10.8784H80.3176ZM74.02 32.4592H80.2792C82.2504 32.4592 83.876 32.2032 85.156 31.6912C86.436 31.1536 87.4472 30.4496 88.1896 29.5792C88.9576 28.6832 89.4952 27.6848 89.8024 26.584C90.1352 25.4832 90.3016 24.3696 90.3016 23.2432C90.3016 22.0912 90.1352 20.9776 89.8024 19.9024C89.4952 18.8272 88.9576 17.8672 88.1896 17.0224C87.4472 16.152 86.436 15.4736 85.156 14.9872C83.876 14.4752 82.2504 14.2192 80.2792 14.2192H74.02V32.4592Z" fill="black"/>
<path fill-rule="evenodd" clip-rule="evenodd" d="M20.9 3.84H0.899994V43.84H20.9C31.9457 43.84 40.9 34.8857 40.9 23.84C40.9 12.7943 31.9457 3.84 20.9 3.84ZM9.09999 12.84H7.09999V14.84H9.09999V12.84ZM7.09999 17.84H9.09999V19.84H7.09999V17.84ZM21.1 12.84H11.1V14.84H21.1V12.84ZM11.1 17.84H27.1V19.84H11.1V17.84ZM35.875 36.6989L31.6419 35.4986C30.7477 37.7676 29.2424 39.7445 27.293 41.21C25.3436 42.6755 23.1281 43.5114 20.7 43.74L19.2 43.8388H16.7C21.1542 42.2434 23.7918 38.9895 25.2922 33.6982L21.0591 32.4978L30.5676 27.1904L35.875 36.6989Z" fill="#0080FF"/>
</svg>
